# xmcd CD database file
#
# Track frame offsets:
#	150
#	32730
#	40369
#	70939
#	87138
#	121915
#	148276
#	161772
#	179329
#	192733
#	209196
#	230289
#	248239
#	266595
#	290240
#	312652
#	329497
#
# Disc length: 4667 seconds
#
# Revision: 0
# Processed by: cddbd v1.5.1PL2 Copyright (c) Steve Scherf et al.
# Submitted via: CDex 1.50beta9
#
DISCID=18123911
DTITLE=Various Artist - Concord Music Group 2005 Sampler [CD1 of 3)
DYEAR=2005
DGENRE=Jazz
TTITLE0=Miles Davis Quintet feat John Coltrane - Four
TTITLE1=Tony Bennett - This Can't Be Love
TTITLE2=Sonny Rollins - St. Thomas
TTITLE3=George Shearing and Mel Tormé - All God's Chillun Got Rhythm
TTITLE4=Dizzy Gillespie, Charlie Parker, Bud Powell, Charles Mingus and Max Roach - Salt Peanuts
TTITLE5=Tito Puente And His Latin Ensemble - Oye Como Va
TTITLE6=Cal Tjader - Guarachi Guaro
TTITLE7=Chick Corea - Spain
TTITLE8=Chet Baker - Old Devil Moon
TTITLE9=Rosemary Clooney - I Cover The Waterfront
TTITLE10=Thelonious Monk - It Don't Mean A Thing (If It Ain't Got That Swing)
TTITLE11=Sarah Vaughan - I Didn't Know What Time It Was
TTITLE12=Marian McPartland - It's You Or No One
TTITLE13=Cannonball Adderley with Bill Evans - Waltz For Debby
TTITLE14=Nnenna Freelon - Better Than Anything
TTITLE15=Poncho Sanchez with special guest Mongo Santamaria - Watermelon Man
TTITLE16=Karrin Allyson - All I Want
EXTD=YEAR: 2005
EXTT0=
EXTT1=
EXTT2=
EXTT3=
EXTT4=
EXTT5=
EXTT6=
EXTT7=
EXTT8=
EXTT9=
EXTT10=
EXTT11=
EXTT12=
EXTT13=
EXTT14=
EXTT15=
EXTT16=
PLAYORDER=
